<svg xmlns="http://www.w3.org/2000/svg" xmlns:xlink="http://www.w3.org/1999/xlink" width="418" height="419" viewBox="0 0 418 419">
  <defs>
    <filter id="shapeO" x="0" y="0" width="418" height="419" filterUnits="userSpaceOnUse">
      <feOffset dy="10" input="SourceAlpha"/>
      <feGaussianBlur stdDeviation="3" result="blur"/>
      <feFlood flood-opacity="0.161"/>
      <feComposite operator="in" in2="blur"/>
      <feComposite in="SourceGraphic"/>
    </filter>
  </defs>
  <g id="shapeO-2" data-name="shapeO" transform="translate(-1245 -442)">
    <g transform="matrix(1, 0, 0, 1, 1245, 442)" filter="url(#shapeO)">
      <path id="shapeO-3" data-name="shapeO" d="M-3780,400a201.476,201.476,0,0,1-40.307-4.063,199,199,0,0,1-37.542-11.654,200.024,200.024,0,0,1-33.973-18.44,201.433,201.433,0,0,1-29.6-24.422,201.393,201.393,0,0,1-24.422-29.6,200.014,200.014,0,0,1-18.44-33.973,199.027,199.027,0,0,1-11.654-37.542A201.466,201.466,0,0,1-3980,200a201.467,201.467,0,0,1,4.063-40.307,199.03,199.03,0,0,1,11.654-37.542,199.985,199.985,0,0,1,18.44-33.973,201.394,201.394,0,0,1,24.422-29.6,201.44,201.44,0,0,1,29.6-24.422,200.016,200.016,0,0,1,33.973-18.44,199,199,0,0,1,37.542-11.654A201.472,201.472,0,0,1-3780,0a201.473,201.473,0,0,1,40.307,4.063,199,199,0,0,1,37.542,11.654,200.037,200.037,0,0,1,33.973,18.44,201.444,201.444,0,0,1,29.6,24.422,201.421,201.421,0,0,1,24.421,29.6,200,200,0,0,1,18.44,33.973,198.968,198.968,0,0,1,11.654,37.542A201.467,201.467,0,0,1-3580,200a201.466,201.466,0,0,1-4.063,40.307,198.969,198.969,0,0,1-11.654,37.542,200,200,0,0,1-18.44,33.973,201.426,201.426,0,0,1-24.421,29.6,201.437,201.437,0,0,1-29.6,24.422,200.042,200.042,0,0,1-33.973,18.44,199.013,199.013,0,0,1-37.542,11.654A201.473,201.473,0,0,1-3780,400Zm0-300a100.113,100.113,0,0,0-100,100,100.113,100.113,0,0,0,100,100,100.113,100.113,0,0,0,100-100A100.113,100.113,0,0,0-3780,100Z" transform="translate(3989 0)" fill="#6cc0db"/>
    </g>
  </g>
</svg>
