<svg xmlns="http://www.w3.org/2000/svg" xmlns:xlink="http://www.w3.org/1999/xlink" width="129.574" height="200.513" viewBox="0 0 129.574 200.513">
  <defs>
    <linearGradient id="linear-gradient" x1="0.5" x2="0.5" y2="1" gradientUnits="objectBoundingBox">
      <stop offset="0" stop-color="#db6c6c"/>
      <stop offset="1" stop-color="#6cc0db"/>
    </linearGradient>
    <filter id="startButton" x="0" y="0" width="129.574" height="200.513" filterUnits="userSpaceOnUse">
      <feOffset dy="10" input="SourceAlpha"/>
      <feGaussianBlur stdDeviation="3" result="blur"/>
      <feFlood flood-opacity="0.161"/>
      <feComposite operator="in" in2="blur"/>
      <feComposite in="SourceGraphic"/>
    </filter>
  </defs>
  <g transform="matrix(1, 0, 0, 1, 0, 0)" filter="url(#startButton)">
    <path id="startButton-2" data-name="startButton" d="M-7911.084,181.513h0L-7938.13,155.4l-.83-47.524h6.022a10.011,10.011,0,0,0,10-10V83.64a10.011,10.011,0,0,0-10-10h-6.619l-.813-46.6L-7914.251,0l77.315,74.661a17.5,17.5,0,0,1,5.064,4.891l.014.012a17.48,17.48,0,0,1,3.06,9.909,17.413,17.413,0,0,1-3.173,10.065l.026.026-.168.174a17.567,17.567,0,0,1-3.473,3.595l-75.5,78.18Z" transform="translate(7949.37)" fill="url(#linear-gradient)"/>
  </g>
</svg>
